<svg width="24" height="24" viewBox="0 0 24 24" fill="none" xmlns="http://www.w3.org/2000/svg">
<path d="M6.46572 9.77532H0.068348V8.36516L3.33538 4.99719C4.06443 4.22137 4.42895 3.58246 4.42895 3.08046C4.42895 2.70624 4.31048 2.40504 4.07354 2.17686C3.84571 1.94867 3.54954 1.83458 3.18502 1.83458C2.45597 1.83458 1.92286 2.2088 1.58567 2.95724L0 2.02626C0.291618 1.37822 0.715376 0.880783 1.27127 0.533946C1.83628 0.177982 2.46508 0 3.15768 0C4.02342 0 4.76613 0.273818 5.38582 0.821455C6.00551 1.35997 6.31535 2.09015 6.31535 3.012C6.31535 4.00688 5.79135 5.02913 4.74335 6.07877L2.87062 7.95443H6.46572V9.77532Z" fill="white"/>
<path d="M13.4995 6.39366L14.5247 6.83052V8.58296L13.4995 8.1461V9.77532H11.5994V8.1461H7.07477V6.39366L10.2598 0.191673H12.2829L9.11153 6.39366H11.5994V4.12097H13.4995V6.39366Z" fill="white"/>
<path d="M17.8213 16.2236V14.4164H24V16.0182L20.7603 24H18.7645L21.9086 16.2236H17.8213Z" fill="white"/>
<path d="M20.742 7L7.57129 20H9.40056L22.5713 7H20.742Z" fill="white"/>
</svg>
