<svg width="64" height="48" viewBox="0 0 64 48" fill="none" xmlns="http://www.w3.org/2000/svg">
<path d="M11.6218 39.9766C11.6218 41.6279 11.6346 43.1486 11.6196 44.6694C11.5939 46.9886 10.5944 47.9894 8.32356 47.9937C6.88099 47.9959 5.43843 48.009 3.998 47.9894C2.14449 47.9633 1.09786 46.9494 1.0893 45.0545C1.06148 38.7452 1.04435 32.4359 1.08716 26.1288C1.10214 24.0294 1.92187 22.2345 3.48644 20.8051C4.83269 19.5759 6.13829 18.301 7.61296 16.9043C7.1956 16.8716 6.95161 16.8368 6.70547 16.8346C5.71665 16.8281 4.7278 16.8542 3.74112 16.8238C1.38892 16.752 -0.39821 14.4262 0.0769388 12.0853C0.29311 11.0149 1.01009 10.347 2.08238 10.3274C3.84386 10.2969 5.60751 10.3187 7.36899 10.3209C8.57184 10.3209 9.06836 11.1715 9.47502 12.3398C10.2348 10.0641 10.9326 7.96248 11.641 5.86519C11.8743 5.17335 12.1034 4.47499 12.3987 3.80925C13.5074 1.30948 15.3973 0.00193388 18.1198 0.00193388C23.5133 0.00193388 28.909 0.00193388 34.3026 0.00193388C38.0417 0.00193388 41.7809 -0.00241734 45.5179 0.00193388C48.8717 0.00846071 50.7188 1.30076 51.9024 4.49238C52.3732 5.76076 52.7949 7.05091 53.2251 8.33452C53.6468 9.59202 54.0556 10.856 54.5029 12.218C54.6399 11.9743 54.749 11.8111 54.8282 11.6327C55.2242 10.7429 55.9112 10.3165 56.8572 10.3143C58.4325 10.3078 60.0077 10.3056 61.583 10.3143C63.2203 10.3208 64.0251 11.1759 63.9994 12.8598C63.963 15.1311 62.3171 16.8216 60.0891 16.8499C58.9547 16.8651 57.8182 16.852 56.6838 16.852L56.5704 17.0696C57.0113 17.4851 57.4522 17.8985 57.8931 18.314C58.6979 19.0712 59.4812 19.85 60.3117 20.5767C62.1502 22.1888 63.0085 24.223 63.002 26.6836C62.9871 32.5839 62.9978 38.4863 62.9935 44.3866C62.9935 44.7934 62.9657 45.2024 62.9122 45.6071C62.7281 47.0016 61.9126 47.8588 60.5428 47.9067C58.6765 47.9741 56.8059 47.9741 54.9374 47.9154C53.5312 47.8719 52.5851 46.8885 52.4995 45.3917C52.4139 43.9014 52.4182 42.4024 52.4524 40.9078C52.4696 40.1615 52.3069 39.8482 51.4872 39.8482C38.5362 39.8722 25.5851 39.8635 12.632 39.8678C12.3195 39.8678 12.0049 39.9309 11.6218 39.9722V39.9766ZM11.3114 16.7868H52.7093C51.3951 12.9185 50.1388 9.11556 48.8011 5.34305C48.3024 3.93543 47.0952 3.48725 45.7062 3.48725C36.5713 3.48725 27.4386 3.47855 18.3038 3.49161C16.3797 3.49378 15.4722 4.19216 14.8494 6.0349C14.2522 7.80584 13.6765 9.58549 13.0922 11.3608C12.5014 13.1578 11.9129 14.9549 11.3136 16.7868H11.3114ZM50.2008 27.6213C50.1859 29.8556 51.6327 31.6266 53.5269 31.6962C55.4403 31.7658 57.0498 30.256 57.1954 27.9476C57.3066 26.1897 56.2451 24.2774 54.4344 23.8466C52.2513 23.3266 50.2158 25.1324 50.2008 27.6235V27.6213ZM13.7835 27.8019C13.7899 25.6002 12.2296 23.7966 10.3055 23.7792C8.34068 23.7618 6.81891 25.5327 6.81034 27.8476C6.80178 29.8992 8.40916 31.6745 10.2926 31.694C12.2146 31.7136 13.7792 29.971 13.7835 27.8019Z" fill="#545151"/>
</svg>
