<svg width="34" height="34" viewBox="0 0 34 34" fill="none" xmlns="http://www.w3.org/2000/svg">
<g clip-path="url(#clip0_102_2545)">
<path d="M30.4084 25.1003C30.4084 24.1824 30.4242 23.3318 30.4053 22.4822C30.3369 19.3773 29.0016 16.9674 26.311 15.4092C21.3798 12.5535 15.067 15.7068 14.3688 21.3635C14.2374 22.4244 14.3057 23.5105 14.2836 24.5851C14.2805 24.7396 14.2836 24.8942 14.2836 25.0918C14.0996 25.0918 13.9598 25.0918 13.8189 25.0918C10.4733 25.0918 7.12655 25.0561 3.78194 25.1066C2.02395 25.1329 0.815851 23.8228 0.824262 22.1573C0.855805 16.0569 0.835828 9.95648 0.836879 3.85712C0.836879 2.03499 1.95981 0.911011 3.77984 0.911011C12.5709 0.911011 21.3619 0.911011 30.1529 0.911011C31.9729 0.911011 33.0959 2.03499 33.0959 3.85712C33.0959 9.98382 33.0969 16.1105 33.0959 22.2362C33.0959 23.6472 32.2999 24.707 31.0119 25.0204C30.8363 25.0635 30.6523 25.0708 30.4095 25.1024L30.4084 25.1003ZM14.3015 7.60127H29.0647C29.0647 6.8495 29.0437 6.12927 29.0731 5.41009C29.0889 5.02947 28.9743 4.92958 28.5947 4.93064C23.9768 4.94325 19.3589 4.93905 14.74 4.93905H14.3005V7.60127H14.3015ZM16.948 10.3571H4.90592V12.9888H16.948V10.3571ZM4.86912 7.60863H11.5688V4.99793C11.5289 4.97269 11.5173 4.96008 11.5068 4.96008C9.3703 4.95272 7.23485 4.9443 5.09834 4.95061C5.02158 4.95061 4.88069 5.09676 4.87859 5.17667C4.86176 5.97366 4.86807 6.77169 4.86807 7.60758L4.86912 7.60863ZM4.88805 18.349H11.5657V15.7215H4.88805V18.349Z" fill="white"/>
<path d="M25.023 33.151C24.186 32.7336 23.4321 32.373 22.694 31.9829C22.448 31.8536 22.2577 31.842 22.0085 31.9766C21.3629 32.3236 20.6995 32.6369 20.0434 32.9628C19.9298 33.0186 19.8142 33.068 19.6501 33.1426C19.6501 32.945 19.6501 32.8041 19.6501 32.6632C19.6501 30.9188 19.6438 29.1745 19.6564 27.4302C19.6585 27.1526 19.5828 26.9907 19.3421 26.8288C17.2991 25.4598 16.4643 22.9385 17.2707 20.6348C18.073 18.3416 20.3199 16.8696 22.7466 17.0462C24.9798 17.2092 26.9187 18.7979 27.5159 20.9555C28.1268 23.1593 27.3067 25.4661 25.4162 26.7751C25.1228 26.9781 25.0114 27.1789 25.0156 27.5322C25.0345 29.2366 25.024 30.942 25.024 32.6463V33.15L25.023 33.151Z" fill="white"/>
</g>
<defs>
<clipPath id="clip0_102_2545">
<rect width="34" height="34" fill="white"/>
</clipPath>
</defs>
</svg>
