<svg width="30" height="30" viewBox="0 0 30 30" fill="none" xmlns="http://www.w3.org/2000/svg">
<g clip-path="url(#clip0_102_2562)">
<path d="M13.5698 30H12.6338C12.3921 29.9348 12.1467 29.8821 11.9102 29.8015C10.3376 29.2668 9.35913 27.8606 9.3584 26.1299C9.35693 18.7441 9.3562 11.3576 9.35986 3.9719C9.35986 3.05051 9.2002 2.16575 8.76953 1.34983C8.53662 0.908179 8.24072 0.50022 7.9668 0.0666267C8.02979 0.063697 8.0957 0.0585701 8.16089 0.0585701C12.9172 0.0585701 17.6736 0.0563728 22.4292 0.0622322C22.709 0.0622322 22.9954 0.0922615 23.2686 0.15525C25.0374 0.561011 26.2019 2.03611 26.2026 3.88108C26.2063 10.6238 26.2041 17.3672 26.2034 24.1098C26.2034 24.1948 26.1946 24.279 26.1887 24.386H25.8262C23.3506 24.386 20.875 24.4123 18.3994 24.375C17.1191 24.3552 16.7661 24.6775 16.8437 25.9262C16.8518 26.0617 16.8459 26.1987 16.8423 26.3357C16.8005 27.9323 15.7773 29.3159 14.2656 29.8132C14.0378 29.8879 13.8013 29.9392 13.5691 30.0007L13.5698 30ZM18.7166 9.41526C18.7166 9.07322 18.7253 8.77146 18.7144 8.47117C18.696 7.94163 18.2888 7.54392 17.7791 7.54539C17.2686 7.54685 16.8665 7.94456 16.8481 8.47629C16.8394 8.73923 16.8313 9.00364 16.8496 9.26511C16.8665 9.49949 16.791 9.61741 16.5654 9.71995C15.3394 10.2751 14.7014 11.7173 15.094 12.9939C15.4675 14.2112 16.4043 14.926 17.7585 15.0278C18.343 15.0718 18.7319 15.4651 18.7151 15.9946C18.6982 16.5234 18.2844 16.8955 17.6978 16.8991C17.1133 16.9028 16.5288 16.8948 15.9443 16.9021C15.3884 16.9094 14.9819 17.3042 14.9761 17.8249C14.9702 18.3574 15.3826 18.7595 15.9524 18.7705C16.2417 18.7756 16.531 18.7712 16.8481 18.7712C16.8481 19.1111 16.8379 19.4209 16.8503 19.73C16.8708 20.2448 17.2715 20.6345 17.7703 20.6411C18.2808 20.6477 18.6931 20.2529 18.7151 19.7248C18.7261 19.4524 18.7334 19.1784 18.7136 18.9067C18.6975 18.6811 18.7686 18.5691 18.9846 18.4717C20.2261 17.9128 20.8647 16.4707 20.4656 15.178C20.095 13.979 19.1523 13.259 17.8193 13.1594C17.2246 13.1147 16.8394 12.7368 16.8481 12.2058C16.8569 11.6653 17.2759 11.2895 17.8801 11.2866C18.4646 11.2829 19.0491 11.2925 19.6335 11.2829C20.1843 11.2741 20.5894 10.8677 20.5872 10.3462C20.585 9.82541 20.1785 9.42844 19.6255 9.41599C19.3347 9.4094 19.0439 9.41453 18.7158 9.41453L18.7166 9.41526Z" fill="white"/>
<path d="M17.3145 30C17.606 29.5422 17.9297 29.102 18.1809 28.623C18.5603 27.8979 18.698 27.1018 18.7236 26.2734H29.9473C29.9209 27.3384 29.5422 28.2349 28.7842 28.9629C28.229 29.4961 27.5669 29.8271 26.8022 29.9473C26.7576 29.9546 26.7158 29.9824 26.6733 30.0007H17.3145V30Z" fill="white"/>
<path d="M0 3.33251C0.0732422 3.07323 0.131104 2.80883 0.221191 2.55614C0.837891 0.813709 2.54736 -0.175793 4.41797 0.120105C6.11279 0.388172 7.43848 1.93505 7.48169 3.71044C7.49707 4.35131 7.48389 4.99291 7.48389 5.67186H0V3.33251Z" fill="white"/>
</g>
<defs>
<clipPath id="clip0_102_2562">
<rect width="30" height="30" fill="white"/>
</clipPath>
</defs>
</svg>
