<svg width="24" height="24" viewBox="0 0 24 24" fill="none" xmlns="http://www.w3.org/2000/svg">
<path d="M16.4461 1H7.55385C3.9399 1 1 3.9399 1 7.55385V16.4461C1 20.0601 3.9399 23 7.55385 23H16.4461C20.0601 23 23 20.0601 23 16.4461V7.55385C23 3.9399 20.0601 1 16.4461 1ZM12.0026 17.6905C8.86566 17.6905 6.31464 15.1395 6.31464 12.0026C6.31464 8.86566 8.86566 6.31464 12.0026 6.31464C15.1395 6.31464 17.6905 8.86566 17.6905 12.0026C17.6905 15.1395 15.1395 17.6905 12.0026 17.6905ZM17.7009 7.71977C16.9491 7.71977 16.3373 7.10794 16.3373 6.35612C16.3373 5.60429 16.9491 4.99246 17.7009 4.99246C18.4527 4.99246 19.0646 5.60429 19.0646 6.35612C19.0646 7.10794 18.4527 7.71977 17.7009 7.71977Z" fill="white"/>
</svg>
