<svg width="24" height="24" viewBox="0 0 24 24" fill="none" xmlns="http://www.w3.org/2000/svg">
<path d="M10.7575 12.0001L15.7075 16.9501C15.803 17.0423 15.8792 17.1526 15.9316 17.2747C15.984 17.3967 16.0116 17.5279 16.0128 17.6607C16.0139 17.7934 15.9886 17.9251 15.9384 18.048C15.8881 18.1709 15.8138 18.2826 15.7199 18.3765C15.626 18.4703 15.5144 18.5446 15.3915 18.5949C15.2686 18.6452 15.1369 18.6705 15.0041 18.6693C14.8714 18.6682 14.7401 18.6406 14.6181 18.5882C14.4961 18.5358 14.3858 18.4596 14.2935 18.3641L8.63654 12.7071C8.44907 12.5195 8.34375 12.2652 8.34375 12.0001C8.34375 11.7349 8.44907 11.4806 8.63654 11.2931L14.2935 5.63606C14.4821 5.4539 14.7347 5.35311 14.9969 5.35538C15.2591 5.35766 15.5099 5.46283 15.6954 5.64824C15.8808 5.83365 15.9859 6.08446 15.9882 6.34666C15.9905 6.60885 15.8897 6.86146 15.7075 7.05006L10.7575 12.0001Z" fill="#21272A"/>
</svg>
