<svg width="59" height="60" viewBox="0 0 59 60" fill="none" xmlns="http://www.w3.org/2000/svg">
<path d="M50.8712 22.2144C51.6717 21.8003 52.4107 21.4615 53.0982 21.0375C53.2924 20.9186 53.4212 20.56 53.435 20.3064C53.4766 19.4683 53.441 18.6263 53.4548 17.7862C53.4707 16.7757 53.9006 16.326 54.8893 16.3022C55.8027 16.2804 56.718 16.2784 57.6314 16.3042C58.5448 16.3319 58.9866 16.7856 58.9906 17.701C59.0025 20.2965 59.0025 22.89 58.9906 25.4855C58.9866 26.4247 58.5111 26.8903 57.572 26.9041C56.6586 26.918 55.7432 26.92 54.8299 26.9041C53.9363 26.8863 53.4885 26.4247 53.4529 25.5192C53.439 25.1745 53.4489 24.8277 53.4489 24.481C53.4489 24.1383 53.4489 23.7935 53.4489 23.2903C52.7059 23.6647 52.0303 23.948 51.43 24.3443C51.2338 24.4731 51.1308 24.9129 51.1605 25.1923C51.7846 31.0748 51.8559 36.9771 51.8797 42.8833C51.8916 46.1663 50.7424 49.1165 49.4328 52.029C49.098 52.772 48.3847 53.0454 47.614 53.1286C47.2474 53.1682 46.873 53.1583 46.5025 53.1583C35.4805 53.1583 24.4605 53.1266 13.4385 53.19C11.5305 53.1999 10.4071 52.4748 9.65029 50.7748C8.42189 48.0129 7.84335 45.1162 7.88099 42.1344C7.93647 37.8132 8.15243 33.4939 8.34263 29.1747C8.41396 27.5738 8.62992 25.9789 8.72106 24.378C8.73889 24.061 8.5903 23.5795 8.35452 23.4309C7.6789 23.0049 6.92006 22.7097 6.07207 22.3055C6.07207 23.3556 6.07801 24.2829 6.07207 25.2121C6.06414 26.4187 5.62826 26.8467 4.40381 26.8546C3.58752 26.8606 2.7732 26.8724 1.95691 26.8506C1.01183 26.8229 0.536316 26.3514 0.532353 25.4182C0.520466 22.8484 0.520466 20.2787 0.532353 17.7089C0.536316 16.8015 0.992015 16.3339 1.89549 16.3082C2.83462 16.2804 3.77376 16.2804 4.71289 16.3082C5.61439 16.3359 6.0364 16.7995 6.07207 17.7188C6.07603 17.8179 6.09386 17.9209 6.07207 18.014C5.68769 19.5396 6.60305 20.2569 7.79778 20.8077C8.21979 21.0018 8.63587 21.2119 9.12921 21.4516C9.48783 19.401 9.83654 17.4137 10.1813 15.4265C10.9342 11.0735 11.6791 6.71864 12.44 2.36771C12.6579 1.12544 13.2483 0.624179 14.5243 0.622198C24.8033 0.614273 35.0842 0.614275 45.3632 0.624181C46.7541 0.624181 47.3326 1.12345 47.5644 2.51432C48.569 8.55333 49.5537 14.5943 50.5503 20.6333C50.6295 21.1187 50.7464 21.5982 50.8732 22.2184L50.8712 22.2144ZM29.9764 27.6253C35.8351 27.6253 41.6919 27.6253 47.5506 27.6253C47.8715 27.6253 48.1985 27.6352 48.5115 27.5817C49.3674 27.4371 49.7201 27.0072 49.6448 26.1473C49.5814 25.4102 49.4526 24.6791 49.3417 23.946C48.8067 20.4312 48.2836 16.9144 47.717 13.4055C47.5407 12.3158 47.1999 12.0583 46.1201 12.0583C35.3676 12.0523 24.615 12.0523 13.8645 12.0583C12.8144 12.0583 12.44 12.3495 12.2319 13.3936C11.9387 14.8697 11.6871 16.3557 11.4553 17.8437C11.0451 20.4788 10.6469 23.1159 10.2724 25.755C10.0862 27.0765 10.4805 27.5243 11.8099 27.6095C12.1784 27.6332 12.5509 27.6253 12.9214 27.6253C18.6058 27.6253 24.2921 27.6253 29.9764 27.6253ZM41.8464 46.1267C44.0377 45.7523 46.0785 45.4253 48.1093 45.0509C49.4764 44.7992 50.3264 43.9096 50.5225 42.5723C50.6949 41.4092 50.6771 40.2125 50.6652 39.0336C50.6473 37.3218 49.2248 36.4619 47.6833 37.2287C46.4925 37.8211 45.3454 38.5066 44.1625 39.1149C43.5464 39.4319 43.2155 39.8896 43.2274 40.5771C43.2531 42.2929 42.7499 43.8819 42.0842 45.4352C42.0168 45.5917 41.9732 45.7562 41.8484 46.1267H41.8464ZM18.1223 45.9444C17.9975 45.669 17.9519 45.5085 17.8608 45.3778C16.7731 43.8165 16.1886 42.1067 16.1925 40.1828C16.1925 39.8658 15.9132 39.422 15.6318 39.2516C14.451 38.5403 13.2424 37.8647 12.0041 37.2604C10.4725 36.5135 9.0777 37.3872 9.01231 39.0951C8.97863 39.9569 8.97863 40.8228 9.0143 41.6866C9.08959 43.5114 10.3735 44.9756 12.1586 45.2866C12.7649 45.3916 13.3791 45.461 13.9913 45.5264C15.3307 45.669 16.67 45.7998 18.1243 45.9464L18.1223 45.9444ZM29.9051 6.68299C33.0653 6.68299 36.2274 6.68299 39.3876 6.68299C40.5348 6.68299 41.0182 6.37986 41.04 5.65272C41.0618 4.89586 40.5566 4.56102 39.3777 4.56102C33.0811 4.56102 26.7826 4.56102 20.486 4.56301C20.1908 4.56301 19.8223 4.49959 19.6182 4.6462C19.2933 4.88 18.8831 5.26041 18.8732 5.59129C18.8633 5.92018 19.2497 6.32833 19.5608 6.57797C19.7529 6.73251 20.1274 6.67902 20.4206 6.67902C23.5808 6.68496 26.743 6.68299 29.9031 6.68299H29.9051ZM17.9143 41.328C18.2075 41.3458 18.4235 41.3716 18.6414 41.3716C26.0059 41.3736 33.3724 41.3756 40.7369 41.3716C41.8127 41.3716 41.9098 41.2408 41.7137 40.1432H17.9123V41.328H17.9143ZM18.5146 43.0973C18.7999 44.1315 19.1268 44.3713 20.1987 44.3713C24.2525 44.3673 28.3042 44.3554 32.358 44.3534C34.7553 44.3534 37.1527 44.3713 39.5501 44.3693C40.5665 44.3693 40.9627 44.0305 41.0915 43.0953H18.5146V43.0973ZM21.3102 46.1069L21.2508 46.2713C21.5955 46.4457 21.9324 46.6458 22.289 46.7885C24.8805 47.8326 27.6048 48.0188 30.3549 47.999C32.6552 47.9832 34.9416 47.8068 37.1071 46.9291C37.5272 46.7587 37.9076 46.4833 38.3058 46.2575L38.2206 46.1069H21.3102Z" fill="#545151"/>
<path d="M8.21064 42C8.66764 42.7636 12.0821 50.3707 12.4314 50.9532C13.2202 52.2643 13.4735 52.0008 15.4878 52.1881C17.2139 52.3486 16.2359 50.7968 17.962 50.9532C18.4219 50.9943 19.4583 52.7479 19.9735 52.8056C19.9735 53.7276 20.0434 56.959 19.9561 57.8255C19.8426 58.9719 18.751 59.8631 17.1471 59.9352C15.0542 60.0299 12.938 60.0196 10.848 59.9125C9.39258 59.8364 8.15837 59.1654 8.09142 58.1301C7.92551 55.6068 8.03612 53.0731 8.03612 50.3337L8.21064 42Z" fill="#545151"/>
<path d="M51.9639 43C51.5069 43.7424 47.9179 50.638 47.5686 51.2043C46.7798 52.479 46.5265 52.2229 44.5122 52.405C42.7861 52.5611 43.7641 51.0523 42.038 51.2043C41.5781 51.2444 40.5417 52.9493 40.0265 53.0053C40.0265 53.9018 39.9566 57.0434 40.0439 57.8859C40.1574 59.0005 41.249 59.8669 42.8529 59.937C44.9458 60.029 47.062 60.019 49.152 59.915C50.6074 59.8409 51.8416 59.1886 51.9086 58.182C52.0745 55.7287 51.9639 53.2654 51.9639 50.602V43Z" fill="#545151"/>
<path d="M29.9031 6.68301C26.743 6.68301 23.5808 6.68498 20.4206 6.67904C20.1274 6.67904 19.7509 6.73055 19.5607 6.57799C19.2497 6.32835 18.8633 5.9202 18.8732 5.59131C18.8831 5.26241 19.2933 4.882 19.6182 4.64623C19.8223 4.49961 20.1908 4.56303 20.486 4.56303C26.7826 4.55906 33.0811 4.55906 39.3777 4.56104C40.5586 4.56104 41.0618 4.89588 41.04 5.65274C41.0182 6.37988 40.5348 6.68301 39.3876 6.68301C36.2274 6.68301 33.0653 6.68301 29.9051 6.68301H29.9031Z" fill="white"/>
<path d="M17.9121 41.328V40.1432H41.7135C41.9076 41.2408 41.8125 41.3716 40.7367 41.3716C33.3722 41.3755 26.0057 41.3736 18.6412 41.3716C18.4233 41.3716 18.2073 41.3458 17.9141 41.328H17.9121Z" fill="white"/>
<path d="M18.5137 43.0972H41.0906C40.9618 44.0324 40.5655 44.3712 39.5491 44.3712C37.1518 44.3712 34.7544 44.3534 32.357 44.3554C28.3033 44.3554 24.2515 44.3692 20.1978 44.3732C19.1259 44.3732 18.799 44.1335 18.5137 43.0992V43.0972Z" fill="white"/>
<path d="M21.3075 46.1068H38.2179L38.3031 46.2574C37.9048 46.4833 37.5264 46.7587 37.1044 46.9291C34.9388 47.8068 32.6524 47.9831 30.3521 47.999C27.6041 48.0188 24.8778 47.8325 22.2862 46.7884C21.9276 46.6438 21.5928 46.4456 21.248 46.2713L21.3075 46.1068Z" fill="white"/>
<path d="M8.63477 36.8522H16.3618L18.5413 47.0559L8.63477 46.1643V36.8522Z" fill="#545151"/>
<path d="M51.0352 36.8522H43.3081L41.1287 47.0559L51.0352 46.1643V36.8522Z" fill="#545151"/>
<path d="M17.75 39.2298H43.1106V48.3437H17.75V39.2298Z" fill="#545151"/>
<path d="M17.5513 43.2914C17.5513 45.4252 15.8215 47.155 13.6878 47.155C11.554 47.155 9.82422 45.4252 9.82422 43.2914C9.82422 41.1577 11.554 39.4279 13.6878 39.4279C15.8215 39.4279 17.5513 41.1577 17.5513 43.2914Z" fill="white"/>
<path d="M49.8462 43.2914C49.8462 45.4252 48.1164 47.155 45.9827 47.155C43.8489 47.155 42.1191 45.4252 42.1191 43.2914C42.1191 41.1577 43.8489 39.4279 45.9827 39.4279C48.1164 39.4279 49.8462 41.1577 49.8462 43.2914Z" fill="white"/>
<path d="M22.9004 48.2447C22.9004 47.6428 23.3883 47.1549 23.9901 47.1549H35.6798C36.2816 47.1549 36.7695 47.6428 36.7695 48.2447C36.7695 48.8465 36.2816 49.3344 35.6798 49.3344H23.9901C23.3883 49.3344 22.9004 48.8465 22.9004 48.2447Z" fill="white"/>
<path d="M18.543 5.64673C18.543 5.0449 19.0309 4.55702 19.6327 4.55702H40.0401C40.6419 4.55702 41.1298 5.0449 41.1298 5.64673C41.1298 6.24857 40.6419 6.73645 40.0401 6.73645H19.6327C19.0309 6.73645 18.543 6.24857 18.543 5.64673Z" fill="white"/>
</svg>
