<svg width="34" height="59" viewBox="0 0 34 59" fill="none" xmlns="http://www.w3.org/2000/svg">
<path d="M10.403 14.1281C9.8062 12.9669 9.23237 11.8503 8.62136 10.6624C6.54216 10.6624 4.35493 10.6749 2.16769 10.6571C1.04485 10.6481 0.154008 9.82944 0.0371196 8.75924C-0.0797692 7.67834 0.633947 6.67414 1.70543 6.44226C1.96046 6.38697 2.23142 6.3941 2.49708 6.39232C4.57274 6.38875 6.65019 6.39053 8.70814 6.39053C9.0039 5.70917 9.22527 5.02603 9.57771 4.41958C11.3877 1.31066 14.1205 -0.253619 17.675 0.0335508C21.2879 0.326072 23.7549 2.35232 25.0177 5.7823C25.1983 6.27281 25.3967 6.41194 25.8944 6.40302C27.8159 6.37091 29.7393 6.38518 31.6626 6.39232C33.0122 6.39588 33.9703 7.28593 33.9738 8.52201C33.9756 9.75988 33.0192 10.6588 31.6732 10.6624C29.5515 10.6695 27.4316 10.6624 25.3772 10.6624C24.7715 11.8396 24.1888 12.9723 23.5955 14.1263C25.3365 14.8843 27.0048 15.9171 28.4535 17.2816C32.0221 20.6438 33.8995 24.7908 33.9632 29.712C34.0199 34.0962 34.004 38.4805 33.9632 42.8647C33.9296 46.6817 31.2252 50.1153 27.6105 50.9447C27.6105 50.3632 27.6123 49.7996 27.6105 49.236C27.591 43.9902 24.141 39.7165 19.0617 38.6428C12.7266 37.3032 6.52267 42.2779 6.39869 48.7972C6.38452 49.5035 6.39692 50.2116 6.39692 51C3.21436 49.9958 1.15465 47.9892 0.308094 44.8089C0.106196 44.0473 0.0442055 43.2268 0.0388924 42.4331C0.0140978 38.3164 -0.0354897 34.1979 0.0406652 30.0812C0.178807 22.7039 3.61639 17.4225 10.2171 14.2262C10.2968 14.1869 10.3712 14.1423 10.403 14.1245V14.1281ZM17.0161 21.343C14.8395 21.3519 12.7001 21.632 10.612 22.2544C9.41479 22.6112 8.77011 23.7527 9.08712 24.8943C9.4006 26.0269 10.5553 26.6833 11.7561 26.3515C15.2468 25.3848 18.7287 25.3866 22.2248 26.3319C22.6286 26.4407 23.1138 26.43 23.5194 26.3212C24.4333 26.0733 24.9769 25.2671 24.9822 24.3289C24.9875 23.3692 24.4279 22.5684 23.4857 22.2812C21.3782 21.6409 19.2175 21.3573 17.0179 21.3448L17.0161 21.343ZM17.0108 12.7992C19.3504 12.7957 21.2542 10.8622 21.2436 8.50061C21.233 6.17114 19.3379 4.26619 17.025 4.25549C14.6801 4.24478 12.7639 6.16222 12.7603 8.51845C12.7568 10.8765 14.6695 12.801 17.0108 12.7975V12.7992ZM17.1896 29.8422C16.3041 29.9135 15.6223 29.9617 14.9422 30.0277C14.5703 30.0633 14.1984 30.1204 13.83 30.19C12.5035 30.4397 11.7526 31.4475 11.9492 32.7067C12.1316 33.8786 13.2261 34.642 14.5154 34.4083C16.1873 34.1051 17.8414 34.1123 19.5133 34.4101C20.7725 34.6349 21.8528 33.8839 22.0494 32.746C22.2673 31.4903 21.5305 30.4254 20.2111 30.2042C19.1484 30.0259 18.0681 29.942 17.1896 29.8404V29.8422Z" fill="#545151"/>
<path d="M23 50.5006C22.8909 51.7717 22.9223 53.0783 22.6462 54.305C21.9668 57.3187 19.1581 59.3237 16.3411 58.9568C13.3538 58.5685 11.0758 55.9714 11.0328 52.8123C11.0064 50.9598 10.9336 49.0842 11.1551 47.2565C11.5453 44.046 14.3374 41.7981 17.3908 42.0144C20.3632 42.2236 22.79 44.9058 22.8892 48.1056C22.914 48.8998 22.8925 49.6976 22.8925 50.4918L23 50.5006Z" fill="#545151"/>
</svg>
