<svg width="24" height="24" viewBox="0 0 24 24" fill="none" xmlns="http://www.w3.org/2000/svg">
<path d="M13.2425 11.9999L8.29246 7.04994C8.19695 6.9577 8.12077 6.84735 8.06836 6.72535C8.01595 6.60334 7.98837 6.47212 7.98721 6.33934C7.98606 6.20656 8.01136 6.07488 8.06164 5.95199C8.11192 5.82909 8.18618 5.71744 8.28007 5.62355C8.37396 5.52965 8.48561 5.4554 8.60851 5.40512C8.73141 5.35484 8.86309 5.32954 8.99586 5.33069C9.12864 5.33185 9.25986 5.35943 9.38187 5.41184C9.50387 5.46425 9.61422 5.54043 9.70646 5.63594L15.3635 11.2929C15.5509 11.4805 15.6562 11.7348 15.6562 11.9999C15.6562 12.2651 15.5509 12.5194 15.3635 12.7069L9.70646 18.3639C9.51786 18.5461 9.26526 18.6469 9.00306 18.6446C8.74087 18.6423 8.49005 18.5372 8.30465 18.3518C8.11924 18.1664 8.01407 17.9155 8.01179 17.6533C8.00951 17.3911 8.11031 17.1385 8.29246 16.9499L13.2425 11.9999Z" fill="#21272A"/>
</svg>
