<svg width="26" height="26" viewBox="0 0 26 26" fill="none" xmlns="http://www.w3.org/2000/svg">
<path d="M12.6496 0.636113C12.8017 0.360089 13.1983 0.360088 13.3504 0.636113L17.2954 7.79859C17.3528 7.90281 17.4537 7.97607 17.5705 7.99846L25.6015 9.53711C25.911 9.59641 26.0336 9.97366 25.8181 10.2036L20.2253 16.1689C20.1439 16.2557 20.1054 16.3742 20.1202 16.4923L21.1385 24.6057C21.1778 24.9183 20.8569 25.1515 20.5716 25.0176L13.17 21.5418C13.0623 21.4913 12.9377 21.4913 12.83 21.5418L5.42836 25.0176C5.14312 25.1515 4.8222 24.9183 4.86145 24.6057L5.87982 16.4923C5.89464 16.3742 5.85613 16.2557 5.77474 16.1689L0.181918 10.2036C-0.033616 9.97366 0.0889617 9.59641 0.398457 9.53711L8.42947 7.99846C8.54633 7.97607 8.64716 7.90281 8.70457 7.79859L12.6496 0.636113Z" fill="white"/>
</svg>
