<svg width="60" height="62" viewBox="0 0 60 62" fill="none" xmlns="http://www.w3.org/2000/svg">
<path d="M29.9246 21.847C36.9667 21.847 44.0088 21.847 51.0508 21.847C53.4925 21.847 55.3919 22.8346 56.4477 25.0641C56.8485 25.9077 57.0398 26.9268 57.0529 27.8699C57.1131 32.321 57.0948 36.7721 57.0764 41.2258C57.0633 44.1704 55.5072 46.2689 52.7799 47.0287C52.2245 47.1832 51.622 47.2356 51.043 47.2356C36.9588 47.2461 22.8773 47.2461 8.79317 47.2435C5.85635 47.2435 3.70548 45.648 2.96669 42.8946C2.81212 42.3182 2.78068 41.6947 2.77806 41.0922C2.76235 36.7223 2.77282 32.3498 2.76758 27.98C2.76496 25.478 3.73168 23.5053 6.05022 22.4391C6.89904 22.0487 7.92077 21.881 8.86391 21.8732C15.885 21.8286 22.9061 21.8496 29.9272 21.8496L29.9246 21.847ZM17.2002 34.5479C17.208 31.6163 14.7611 29.1589 11.8479 29.172C8.92417 29.1851 6.46415 31.6556 6.48773 34.5583C6.51131 37.4768 8.88486 39.8504 11.8269 39.8923C14.7375 39.9368 17.1949 37.4952 17.2028 34.5479H17.2002ZM42.6334 34.54C42.6334 37.4847 45.0803 39.9237 48.0014 39.8923C50.9303 39.8608 53.3144 37.4847 53.3458 34.5636C53.3772 31.6661 50.9225 29.1929 47.9935 29.1694C45.0829 29.1484 42.6334 31.6006 42.6334 34.5374V34.54ZM20.936 34.5374C20.936 36.3162 20.9229 38.0977 20.9413 39.8766C20.9517 40.935 21.6774 41.6764 22.6599 41.6921C23.6764 41.7078 24.4361 40.9638 24.4387 39.8766C24.4518 36.3162 24.4466 32.7585 24.4413 29.1982C24.4413 28.5982 24.2239 28.0848 23.7314 27.7258C23.1812 27.325 22.5787 27.2543 21.9551 27.5451C21.2609 27.8699 20.9387 28.4489 20.9334 29.1982C20.9256 30.977 20.9308 32.7585 20.9308 34.5374H20.936ZM35.387 34.4902C35.387 36.29 35.3739 38.0898 35.3922 39.8897C35.4027 40.9454 36.1388 41.6842 37.1239 41.6921C38.1116 41.7 38.8818 40.9664 38.887 39.9237C38.9027 36.3241 38.9001 32.7245 38.887 29.1248C38.887 28.4253 38.5517 27.883 37.9125 27.5634C36.7178 26.9661 35.4053 27.8097 35.3896 29.2139C35.366 30.9744 35.3843 32.7323 35.3843 34.4928L35.387 34.4902ZM28.1694 34.485C28.1694 36.2638 28.1536 38.0427 28.1746 39.8216C28.1877 41.0031 28.937 41.7366 30.0163 41.6842C30.9778 41.6397 31.6511 40.9324 31.6537 39.8635C31.6694 36.3058 31.659 32.7454 31.6563 29.1877C31.6563 29.0672 31.6459 28.9441 31.6249 28.8262C31.4991 28.1241 31.0905 27.6551 30.4119 27.4508C29.2461 27.1023 28.1982 27.9092 28.1772 29.206C28.1484 30.9639 28.1694 32.7245 28.1694 34.4824V34.485Z" fill="#545151"/>
<path d="M2.79468 38.7789C3.43915 39.1771 8.98003 41.7288 9.59831 42.0537C10.9659 42.7741 10.2847 43.3662 11.8252 43.3636C14.555 43.3636 13.418 42.0537 16.1479 42.0537L17.9503 45.7214C17.9503 46.138 17.9556 51.5453 17.9503 51.9226C17.9189 53.7014 17.9844 55.4881 17.8272 57.2539C17.6124 59.6615 15.3331 61.8019 12.9072 61.9303C11.2148 62.0193 9.51188 62.0272 7.8221 61.9303C5.24944 61.7836 2.95972 59.5934 2.82611 56.9893C2.68464 54.228 2.79468 51.4536 2.79468 48.6216V38.7789Z" fill="#545151"/>
<path d="M57.1152 36.814C56.4708 37.2122 50.762 41.7288 50.1437 42.0536C48.7761 42.7741 49.4573 43.3662 47.9168 43.3635C45.187 43.3635 46.324 42.0536 43.5941 42.0536L41.7917 45.7214C41.7917 46.1379 41.7864 51.5453 41.7917 51.9225C41.8231 53.7014 41.7576 55.4881 41.9148 57.2538C42.1296 59.6614 44.4089 61.8018 46.8348 61.9302C48.5272 62.0193 50.2301 62.0271 51.9199 61.9302C54.4925 61.7835 56.7823 59.5933 56.9159 56.9892C57.0573 54.2279 56.9473 51.4536 56.9473 48.6215L57.1152 36.814Z" fill="#545151"/>
<path d="M17.1996 34.5479C17.1917 37.4952 14.737 39.9369 11.8237 39.8923C8.8843 39.8478 6.50812 37.4742 6.48454 34.5584C6.46096 31.6556 8.92098 29.1851 11.8447 29.172C14.7579 29.1589 17.2075 31.6189 17.197 34.5479H17.1996Z" fill="white"/>
<path d="M42.6348 34.54C42.6348 31.6032 45.0843 29.1484 47.9949 29.172C50.9239 29.1956 53.3813 31.6687 53.3472 34.5662C53.3158 37.4873 50.9317 39.8635 48.0028 39.8949C45.0817 39.9264 42.6374 37.4873 42.6348 34.5426V34.54Z" fill="white"/>
<path d="M20.9373 34.5373C20.9373 32.7585 20.932 30.977 20.9399 29.1981C20.9425 28.4489 21.2647 27.8699 21.9616 27.545C22.5825 27.2542 23.1877 27.3276 23.7378 27.7258C24.2304 28.0847 24.4478 28.5982 24.4478 29.1981C24.4504 32.7585 24.4583 36.3162 24.4452 39.8765C24.44 40.9611 23.6802 41.7052 22.6663 41.6921C21.6839 41.679 20.9582 40.9376 20.9477 39.8765C20.9294 38.0977 20.9425 36.3162 20.9425 34.5373H20.9373Z" fill="white"/>
<path d="M35.3896 34.4903C35.3896 32.7298 35.3713 30.9719 35.3948 29.2113C35.4132 27.8097 36.7257 26.9635 37.9177 27.5608C38.5543 27.8805 38.8897 28.4228 38.8923 29.1223C38.9054 32.7219 38.908 36.3215 38.8923 39.9212C38.8871 40.9638 38.1168 41.6974 37.1292 41.6895C36.1441 41.6817 35.4079 40.9455 35.3975 39.8871C35.3791 38.0873 35.3922 36.2875 35.3922 34.4877L35.3896 34.4903Z" fill="white"/>
<path d="M28.1714 34.4849C28.1714 32.727 28.1505 30.9665 28.1793 29.2086C28.2002 27.9118 29.2482 27.1049 30.414 27.4533C31.0899 27.6551 31.5012 28.124 31.627 28.8287C31.6479 28.9466 31.6584 29.0698 31.6584 29.1903C31.6584 32.748 31.6715 36.3083 31.6558 39.866C31.6505 40.9349 30.9773 41.6423 30.0184 41.6868C28.939 41.7392 28.1924 41.0057 28.1767 39.8241C28.1557 38.0453 28.1714 36.2664 28.1714 34.4875V34.4849Z" fill="white"/>
<path fill-rule="evenodd" clip-rule="evenodd" d="M45.7194 2.75629H14.2816C13.4134 2.75629 12.7097 3.46005 12.7097 4.32818V19.2612H47.2913V4.32818C47.2913 3.46005 46.5875 2.75629 45.7194 2.75629ZM14.2816 0.136475C11.9665 0.136475 10.0898 2.01317 10.0898 4.32818V21.881H49.9111V4.32818C49.9111 2.01317 48.0344 0.136475 45.7194 0.136475H14.2816Z" fill="#545151"/>
<path d="M0.919922 6.16204C0.919922 4.71515 2.09285 3.54222 3.53974 3.54222H6.42154C7.14498 3.54222 7.73145 4.12869 7.73145 4.85213V18.7372H3.53974C2.09285 18.7372 0.919922 17.5642 0.919922 16.1174V6.16204Z" fill="#545151"/>
<path d="M59.0801 6.16204C59.0801 4.71515 57.9071 3.54222 56.4603 3.54222H53.5785C52.855 3.54222 52.2685 4.12869 52.2685 4.85213V18.7372H56.4603C57.9071 18.7372 59.0801 17.5642 59.0801 16.1174V6.16204Z" fill="#545151"/>
<path d="M5.11133 15.5934H11.6609V18.7372H5.11133V15.5934Z" fill="#545151"/>
<path d="M49.3867 15.5934H55.9363V18.7372H49.3867V15.5934Z" fill="#545151"/>
</svg>
