<svg width="24" height="24" viewBox="0 0 24 24" fill="none" xmlns="http://www.w3.org/2000/svg">
<path d="M22.1716 1.83051C22.0182 1.67718 21.8238 1.57144 21.6118 1.52603C21.3997 1.48063 21.179 1.49748 20.9763 1.57458L2.2249 8.67192H2.22115C2.00494 8.75508 1.81968 8.90295 1.69066 9.09534C1.56163 9.28772 1.49515 9.51525 1.50028 9.74684C1.5054 9.97843 1.5819 10.2028 1.71931 10.3893C1.85672 10.5758 2.04835 10.7153 2.26802 10.7888L2.28724 10.7949L8.72318 13.5432C8.84871 13.5813 8.98204 13.5858 9.10986 13.5563C9.23768 13.5267 9.35552 13.4642 9.45162 13.3749L19.781 3.75005C19.8118 3.71927 19.8483 3.69485 19.8885 3.67819C19.9287 3.66154 19.9718 3.65296 20.0154 3.65296C20.0589 3.65296 20.102 3.66154 20.1422 3.67819C20.1824 3.69485 20.219 3.71927 20.2497 3.75005C20.2805 3.78082 20.3049 3.81736 20.3216 3.85758C20.3382 3.89779 20.3468 3.94089 20.3468 3.98442C20.3468 4.02795 20.3382 4.07105 20.3216 4.11126C20.3049 4.15148 20.2805 4.18802 20.2497 4.2188L10.6244 14.5435C10.5351 14.6396 10.4726 14.7574 10.4431 14.8852C10.4135 15.0131 10.418 15.1464 10.4561 15.2719L13.2054 21.7116C13.2082 21.721 13.211 21.7294 13.2143 21.7383C13.3643 22.1729 13.744 22.4794 14.2029 22.5C14.223 22.5 14.2301 22.5 14.2497 22.5C14.4814 22.5014 14.7081 22.433 14.9004 22.3037C15.0927 22.1745 15.2416 21.9904 15.3279 21.7754L22.4243 3.02911C22.5025 2.82627 22.5202 2.60512 22.4754 2.39241C22.4305 2.1797 22.325 1.98453 22.1716 1.83051Z" fill="white"/>
</svg>
