<svg width="50" height="61" viewBox="0 0 50 61" fill="none" xmlns="http://www.w3.org/2000/svg">
<path d="M29.617 52.7706H19.7998C19.7998 52.4607 19.7998 52.1856 19.7998 51.9085C19.7998 48.7266 19.8058 45.5448 19.7978 42.361C19.7918 39.9777 18.5554 38.7111 16.2385 38.6988C15.5234 38.6947 14.8083 38.6988 14.0094 38.6988V25.5528C13.6658 25.5528 13.4021 25.5528 13.1385 25.5528C10.1484 25.5528 7.15828 25.561 4.16817 25.5466C3.06162 25.5405 2.41048 24.551 2.88186 23.6314C3.15351 23.1018 3.60292 22.8965 4.18017 22.9006C5.82403 22.9129 7.46987 22.8862 9.11373 22.915C9.60509 22.9232 9.79284 22.7754 9.88672 22.2581C11.0732 15.7343 12.2856 9.21468 13.494 2.69504C13.8535 0.75927 14.7005 0.0469497 16.6379 0.0469497C22.2207 0.044897 27.8014 0.044897 33.3841 0.0469497C35.3196 0.0469497 36.1285 0.771583 36.4881 2.72994C37.6905 9.27626 38.9069 15.8226 40.1193 22.3669C40.1473 22.5167 40.2012 22.6625 40.2691 22.9067C41.4396 22.9067 42.626 22.9067 43.8125 22.9067C44.4596 22.9067 45.1088 22.8985 45.756 22.9088C46.6927 22.9232 47.27 23.4302 47.272 24.2287C47.276 25.0375 46.7087 25.5507 45.77 25.5528C42.63 25.5589 39.4901 25.5548 36.3502 25.5548C36.0806 25.5548 35.8089 25.5548 35.4554 25.5548V38.7009C34.5526 38.7009 33.7376 38.6824 32.9227 38.705C30.9073 38.7583 29.627 40.1009 29.621 42.1762C29.611 45.4094 29.619 48.6425 29.619 51.8777C29.619 52.1548 29.619 52.434 29.619 52.7727L29.617 52.7706ZM36.8096 20.0103C35.8529 14.8701 34.9221 9.83873 33.9793 4.80941C33.7236 3.45252 33.0905 2.91469 31.7702 2.91264C27.2361 2.90648 22.702 2.90648 18.1679 2.91264C16.8836 2.91264 16.2145 3.46279 15.9728 4.74167C15.2737 8.43874 14.5926 12.1378 13.9075 15.839C13.6538 17.2062 13.4041 18.5754 13.1485 19.9713H18.1459C19.0308 16.1264 21.2699 13.8827 24.3678 13.6713C25.9358 13.5645 27.3919 13.8889 28.7042 14.788C30.5058 16.0217 31.4965 17.7912 31.8061 20.0123H36.8096V20.0103ZM25.5783 15.0897C25.5783 16.2085 25.5723 17.3293 25.5863 18.4502C25.5863 18.5815 25.6801 18.7232 25.758 18.8402C25.9997 19.2056 26.2534 19.5628 26.563 20.0103H30.4439C30.1443 17.3396 27.9332 15.1123 25.5763 15.0897H25.5783ZM24.3958 15.1082C22.0988 15.059 19.6879 17.512 19.5721 19.9713H23.4011C24.8972 18.5117 24.26 16.7525 24.3978 15.1082H24.3958Z" fill="#545151"/>
<path d="M49.9676 44.1994C49.9676 48.5588 49.9696 52.9182 49.9676 57.2796C49.9676 59.6628 48.6817 60.9375 46.2795 60.9476C44.7675 60.9536 43.2576 60.9596 41.7456 60.9476C39.519 60.9275 38.1867 59.5886 38.1847 57.3638C38.1806 48.5448 38.1806 39.7237 38.1847 30.9047C38.1847 28.6678 39.517 27.353 41.7536 27.349C43.1647 27.347 44.5798 27.4312 45.9827 27.3309C48.4596 27.1526 50.0644 28.8562 49.9978 31.3516C49.8848 35.6329 49.9676 39.9201 49.9676 44.2054V44.1994Z" fill="#545151"/>
<path d="M11.8173 44.1605C11.8173 48.5476 11.8193 52.9327 11.8173 57.3199C11.8173 59.6067 10.5045 60.9267 8.21179 60.9447C6.66774 60.9567 5.1257 60.9587 3.58165 60.9447C1.34572 60.9246 0.00659417 59.5886 0.0045652 57.358C-0.00152173 48.5356 -0.00152173 39.7112 0.0045652 30.8888C0.0045652 28.614 1.33963 27.3201 3.65266 27.3181C5.14599 27.3181 6.6373 27.3181 8.13062 27.3181C10.5167 27.3201 11.8152 28.616 11.8152 31.0032C11.8152 35.3903 11.8152 39.7754 11.8152 44.1625L11.8173 44.1605Z" fill="#545151"/>
<path d="M18.1789 50.5025C18.1789 53.2331 18.1789 55.9636 18.1789 58.6942C18.1789 60.3952 17.6524 60.9474 16.0425 60.9515C15.7584 60.9515 15.4743 60.9636 15.1921 60.9393C14.2338 60.8604 13.6486 60.2537 13.6467 59.2322C13.6334 53.4171 13.6334 47.6 13.6467 41.785C13.6486 40.6786 14.2584 40.0779 15.3001 40.0516C15.6789 40.0415 16.0558 40.0455 16.4346 40.0516C17.5918 40.0678 18.1694 40.6705 18.1751 41.9286C18.1884 44.7866 18.1789 47.6425 18.1789 50.5005V50.5025Z" fill="#545151"/>
<path d="M36.3603 50.5303C36.3603 53.3083 36.3648 56.0884 36.3603 58.8664C36.358 60.3556 35.71 60.9363 34.0617 60.9545C33.9207 60.9545 33.7775 60.9545 33.6365 60.9545C31.4766 60.9545 30.9082 60.4547 30.9082 58.5447C30.9082 53.1141 30.9082 47.6835 30.9082 42.2529C30.9082 40.5351 31.4584 40.0474 33.3864 40.0454C33.641 40.0454 33.8957 40.0454 34.1504 40.0454C35.7055 40.0576 36.3535 40.6322 36.358 42.0424C36.3671 44.871 36.3603 47.6997 36.3603 50.5303Z" fill="#545151"/>
<path d="M17.2734 12.7727H34.5462V20.0454H17.2734V12.7727Z" fill="#F9F9F9"/>
<path d="M29.09 32.3181C29.09 34.5775 27.2585 36.409 24.9991 36.409C22.7398 36.409 20.9082 34.5775 20.9082 32.3181C20.9082 30.0588 22.7398 28.2272 24.9991 28.2272C27.2585 28.2272 29.09 30.0588 29.09 32.3181Z" fill="#F9F9F9"/>
<path d="M22.7266 46.409C22.7266 45.907 22.8247 45.5 22.9459 45.5H27.0527C27.1738 45.5 27.272 45.907 27.272 46.409C27.272 46.9111 27.1738 47.3181 27.0527 47.3181H22.9459C22.8247 47.3181 22.7266 46.9111 22.7266 46.409Z" fill="white"/>
<path d="M22.7266 48.6818C22.7266 48.4307 22.8247 48.2272 22.9459 48.2272H27.0527C27.1738 48.2272 27.272 48.4307 27.272 48.6818C27.272 48.9328 27.1738 49.1363 27.0527 49.1363H22.9459C22.8247 49.1363 22.7266 48.9328 22.7266 48.6818Z" fill="white"/>
</svg>
